# xmcd
#
# Track frame offsets:
#	150
#	10513
#	13709
#	20341
#	36189
#	57408
#	62089
#	75106
#	90471
#	106905
#	120377
#
# Disc length: 1648 seconds
#
# Revision: 1
# Processed by: cddbd v1.5.2PL0 Copyright (c) Steve Scherf et al.
# Submitted via: audiograbber 1.83.01
#
DISCID=70066e0b
DTITLE=Zac Brown Band - The Owl
DYEAR=2019
DGENRE=Country
TTITLE0=The Woods
TTITLE1=Need This
TTITLE2=OMW
TTITLE3=Someone I Used To Know
TTITLE4=Me and the Boys in the Band
TTITLE5=Finish What We Started
TTITLE6=God Given
TTITLE7=Warrior
TTITLE8=Shoofly Pie
TTITLE9=Already On Fire
TTITLE10=Leaving Love Behind
EXTD=
EXTT0=
EXTT1=
EXTT2=
EXTT3=
EXTT4=
EXTT5=
EXTT6=
EXTT7=
EXTT8=
EXTT9=
EXTT10=
PLAYORDER=
